<svg width="62" height="62" viewBox="0 0 62 62" fill="none" xmlns="http://www.w3.org/2000/svg">
<path d="M32.9375 3.875C16.8872 3.875 3.875 16.8872 3.875 32.9375C3.875 48.9878 16.8872 62 32.9375 62C48.9878 62 62 48.9878 62 32.9375C62 16.8872 48.9878 3.875 32.9375 3.875ZM32.9375 58.125C19.0495 58.125 7.75 46.8255 7.75 32.9375C7.75 19.0495 19.0495 7.75 32.9375 7.75C46.8255 7.75 58.125 19.0495 58.125 32.9375C58.125 46.8255 46.8255 58.125 32.9375 58.125ZM43.6635 19.4719L33.0111 30.1243L23.4592 19.4719C23.0938 19.1189 22.6044 18.9237 22.0964 18.9281C21.5884 18.9325 21.1025 19.1362 20.7432 19.4955C20.384 19.8547 20.1802 20.3407 20.1758 20.8487C20.1714 21.3567 20.3667 21.8461 20.7196 22.2115L30.2754 32.8639L19.4758 43.6635C19.1228 44.0289 18.9275 44.5183 18.9319 45.0263C18.9364 45.5343 19.1401 46.0203 19.4994 46.3795C19.8586 46.7388 20.3445 46.9425 20.8525 46.9469C21.3605 46.9513 21.85 46.7561 22.2154 46.4031L32.8678 35.7507L42.4235 46.4031C42.7889 46.7561 43.2783 46.9513 43.7863 46.9469C44.2943 46.9425 44.7803 46.7388 45.1395 46.3795C45.4988 46.0203 45.7025 45.5343 45.7069 45.0263C45.7113 44.5183 45.5161 44.0289 45.1631 43.6635L35.6035 33.0111L46.4031 22.2115C46.7561 21.8461 46.9513 21.3567 46.9469 20.8487C46.9425 20.3407 46.7388 19.8547 46.3795 19.4955C46.0203 19.1362 45.5343 18.9325 45.0263 18.9281C44.5183 18.9237 44.0289 19.1189 43.6635 19.4719Z" fill="#5C411F"/>
</svg>
