<svg width="80" height="80" viewBox="0 0 80 80" fill="none" xmlns="http://www.w3.org/2000/svg">
<g clip-path="url(#clip0_37_10)">
<path d="M2.5 20H77.5C78.163 20 78.7989 19.7366 79.2678 19.2678C79.7366 18.7989 80 18.163 80 17.5C80 16.837 79.7366 16.2011 79.2678 15.7322C78.7989 15.2634 78.163 15 77.5 15H2.5C1.83696 15 1.20107 15.2634 0.732233 15.7322C0.263392 16.2011 0 16.837 0 17.5C0 18.163 0.263392 18.7989 0.732233 19.2678C1.20107 19.7366 1.83696 20 2.5 20Z" fill="#5C411F"/>
<path d="M77.5 37.5H2.5C1.83696 37.5 1.20107 37.7634 0.732233 38.2322C0.263392 38.7011 0 39.337 0 40C0 40.663 0.263392 41.2989 0.732233 41.7678C1.20107 42.2366 1.83696 42.5 2.5 42.5H77.5C78.163 42.5 78.7989 42.2366 79.2678 41.7678C79.7366 41.2989 80 40.663 80 40C80 39.337 79.7366 38.7011 79.2678 38.2322C78.7989 37.7634 78.163 37.5 77.5 37.5Z" fill="#5C411F"/>
<path d="M77.5 60H2.5C1.83696 60 1.20107 60.2634 0.732233 60.7322C0.263392 61.2011 0 61.837 0 62.5C0 63.163 0.263392 63.7989 0.732233 64.2678C1.20107 64.7366 1.83696 65 2.5 65H77.5C78.163 65 78.7989 64.7366 79.2678 64.2678C79.7366 63.7989 80 63.163 80 62.5C80 61.837 79.7366 61.2011 79.2678 60.7322C78.7989 60.2634 78.163 60 77.5 60Z" fill="#5C411F"/>
</g>
<defs>
<clipPath id="clip0_37_10">
<rect width="80" height="80" fill="white"/>
</clipPath>
</defs>
</svg>
