<svg width="145" height="144" viewBox="0 0 145 144" fill="none" xmlns="http://www.w3.org/2000/svg">
<path d="M72.041 11.166C38.498 11.166 11.208 38.456 11.208 72C11.208 105.545 38.498 132.834 72.041 132.834C105.585 132.834 132.876 105.545 132.876 72C132.875 38.456 105.584 11.166 72.041 11.166ZM72.041 126.834C41.806 126.834 17.208 102.236 17.208 72C17.208 41.765 41.806 17.166 72.041 17.166C102.276 17.166 126.876 41.765 126.876 72C126.875 102.236 102.276 126.834 72.041 126.834Z" fill="#3E4532"/>
<path d="M41.143 59.11H55.221V95.844H41.143V59.11Z" fill="#3E4532"/>
<path d="M48.042 53.25C51.977 53.25 55.167 50.3399 55.167 46.75C55.167 43.1601 51.977 40.25 48.042 40.25C44.107 40.25 40.917 43.1601 40.917 46.75C40.917 50.3399 44.107 53.25 48.042 53.25Z" fill="#3E4532"/>
<path d="M90.608 58.28C87.725 58.28 85.282 58.805 83.274 59.854C81.268 60.904 79.286 62.65 77.325 65.094V59.11H64.215V95.844H78.293V78.203C78.293 74.859 78.824 72.543 79.885 71.251C80.946 69.96 82.328 69.314 84.035 69.314C85.58 69.314 86.779 69.793 87.633 70.75C88.487 71.707 88.912 73.338 88.912 75.645V95.844H103.06V72.497C103.06 67.654 101.958 64.074 99.755 61.756C97.555 59.438 94.504 58.28 90.608 58.28Z" fill="#3E4532"/>
</svg>
