<svg width="124" height="124" viewBox="0 0 124 124" fill="none" xmlns="http://www.w3.org/2000/svg">
<path d="M103.501 103.308H20.4987C16.1325 103.302 11.9466 101.566 8.85925 98.4783C5.77187 95.3909 4.03513 91.205 4.03 86.8388V37.1613C4.03513 32.795 5.77187 28.6091 8.85925 25.5218C11.9466 22.4344 16.1325 20.6976 20.4987 20.6925H103.501C107.867 20.6976 112.053 22.4344 115.141 25.5218C118.228 28.6091 119.965 32.795 119.97 37.1613V86.8388C119.965 91.205 118.228 95.3909 115.141 98.4783C112.053 101.566 107.867 103.302 103.501 103.308ZM20.4987 26.505C17.6725 26.505 14.9621 27.6277 12.9636 29.6261C10.9652 31.6246 9.8425 34.335 9.8425 37.1613V86.8388C9.8425 89.665 10.9652 92.3754 12.9636 94.3739C14.9621 96.3723 17.6725 97.495 20.4987 97.495H103.501C106.327 97.495 109.038 96.3723 111.036 94.3739C113.035 92.3754 114.157 89.665 114.157 86.8388V37.1613C114.157 34.335 113.035 31.6246 111.036 29.6261C109.038 27.6277 106.327 26.505 103.501 26.505H20.4987Z" fill="#3E4532"/>
<path d="M62 73.78C58.4148 73.7856 54.9254 72.6225 52.0606 70.4669L6.81999 36.2506C6.50034 36.0263 6.22919 35.7398 6.02271 35.4084C5.81624 35.0769 5.67869 34.7072 5.61827 34.3214C5.55786 33.9356 5.57581 33.5416 5.67107 33.1628C5.76633 32.7841 5.93694 32.4285 6.1727 32.1172C6.40846 31.8059 6.70455 31.5453 7.04328 31.3509C7.382 31.1566 7.75642 31.0325 8.14416 30.9861C8.53191 30.9397 8.92503 30.9719 9.30005 31.0808C9.67507 31.1897 10.0243 31.3731 10.3269 31.62L55.5675 65.875C57.4253 67.2618 59.6816 68.0111 62 68.0111C64.3184 68.0111 66.5747 67.2618 68.4325 65.875L113.673 31.62C113.976 31.3731 114.325 31.1897 114.7 31.0808C115.075 30.9719 115.468 30.9397 115.856 30.9861C116.244 31.0325 116.618 31.1566 116.957 31.3509C117.295 31.5453 117.592 31.8059 117.827 32.1172C118.063 32.4285 118.234 32.7841 118.329 33.1628C118.424 33.5416 118.442 33.9356 118.382 34.3214C118.321 34.7072 118.184 35.0769 117.977 35.4084C117.771 35.7398 117.5 36.0263 117.18 36.2506L71.9394 70.4669C69.0746 72.6225 65.5852 73.7856 62 73.78Z" fill="#3E4532"/>
<path d="M8.07938 95.2088C7.48994 95.2096 6.91416 95.0313 6.42846 94.6973C5.94276 94.3633 5.57009 93.8896 5.35991 93.3389C5.14972 92.7882 5.11195 92.1866 5.25161 91.6139C5.39127 91.0413 5.70176 90.5246 6.14188 90.1325L41.7919 58.3382C42.3674 57.8243 43.1235 57.5601 43.8938 57.6037C44.6641 57.6473 45.3855 57.9951 45.8994 58.5707C46.4132 59.1462 46.6774 59.9023 46.6338 60.6726C46.5902 61.4429 46.2424 62.1643 45.6669 62.6782L10.0169 94.4725C9.48745 94.9542 8.7951 95.2173 8.07938 95.2088ZM115.921 95.2088C115.205 95.2173 114.513 94.9542 113.983 94.4725L78.3331 62.6782C77.7576 62.1643 77.4098 61.4429 77.3662 60.6726C77.3226 59.9023 77.5868 59.1462 78.1006 58.5707C78.6145 57.9951 79.3359 57.6473 80.1062 57.6037C80.8765 57.5601 81.6326 57.8243 82.2081 58.3382L117.839 90.1325C118.279 90.5246 118.589 91.0413 118.729 91.6139C118.869 92.1866 118.831 92.7882 118.621 93.3389C118.411 93.8896 118.038 94.3633 117.552 94.6973C117.066 95.0313 116.491 95.2096 115.901 95.2088H115.921Z" fill="#3E4532"/>
</svg>
